<?xml version="1.0" encoding="utf-8"?>
<!-- Generator: Adobe Illustrator 25.0.0, SVG Export Plug-In . SVG Version: 6.00 Build 0)  -->
<svg version="1.1" id="Layer_1" xmlns="http://www.w3.org/2000/svg" xmlns:xlink="http://www.w3.org/1999/xlink" x="0px" y="0px"
	 viewBox="0 0 406.2 454.7" style="enable-background:new 0 0 406.2 454.7;" xml:space="preserve">
<style type="text/css">
	.st0{fill:#00AC69;}
	.st1{opacity:0.4;}
	.st2{fill:#263238;}
	.st3{fill:#FFFFFF;}
</style>
<g id="freepik--Label--inject-4">
	<path class="st0" d="M286.3,140.4l-100.1-5.8c-8-0.5-15.8,2.5-21.5,8.1L8.4,296.7c-11.1,10.9-11.2,28.8-0.3,39.9
		c0.1,0.1,0.1,0.1,0.2,0.2l110.2,109.6c11,11,28.9,11,39.9-0.1c0,0,0,0,0,0l154-155.3c5.8-5.8,8.7-13.8,8.1-22l-7.7-102.6
		C311.8,152.4,300.4,141.2,286.3,140.4z M279.2,185.7c5,11.8-0.5,25.5-12.4,30.5c-11.8,5-25.5-0.5-30.5-12.4
		c-5-11.8,0.5-25.5,12.4-30.5c0,0,0,0,0,0C260.5,168.3,274.1,173.9,279.2,185.7L279.2,185.7z"/>
	<g class="st1">
		<path d="M286.3,140.4l-100.1-5.8c-8-0.5-15.8,2.5-21.5,8.1L8.4,296.7c-11.1,10.9-11.2,28.8-0.3,39.9c0.1,0.1,0.1,0.1,0.2,0.2
			l110.2,109.6c11,11,28.9,11,39.9-0.1c0,0,0,0,0,0l154-155.3c5.8-5.8,8.7-13.8,8.1-22l-7.7-102.6
			C311.8,152.4,300.4,141.2,286.3,140.4z M279.2,185.7c5,11.8-0.5,25.5-12.4,30.5c-11.8,5-25.5-0.5-30.5-12.4
			c-5-11.8,0.5-25.5,12.4-30.5c0,0,0,0,0,0C260.5,168.3,274.1,173.9,279.2,185.7L279.2,185.7z"/>
	</g>
	<path class="st0" d="M294.5,132.2l-100.1-5.8c-8-0.5-15.8,2.5-21.5,8.1L16.6,288.6c-11.1,10.9-11.2,28.8-0.3,39.9
		c0.1,0.1,0.1,0.1,0.2,0.2l110.2,109.6c11.1,11,28.9,11,39.9-0.1c0,0,0.1-0.1,0.1-0.1l154-155.3c5.8-5.8,8.7-13.8,8.1-22L321,158.3
		C320,144.2,308.6,133,294.5,132.2z M287.3,177.5c5,11.8-0.5,25.5-12.4,30.5c-11.8,5-25.5-0.5-30.5-12.4c-5-11.8,0.5-25.5,12.4-30.5
		c0,0,0,0,0,0C268.7,160.2,282.3,165.7,287.3,177.5L287.3,177.5z"/>
	<path class="st2" d="M322,170.1c0.9-0.3,1.8-0.4,2.7-0.4c1.7-0.2,4.3-0.5,7.6-0.7c3.3-0.3,7.4-0.5,12.1-0.7
		c4.7-0.2,10.1-0.2,16.1,0.1c6.5,0.3,13,1.2,19.4,2.6l2.6,0.6l2.6,0.7c1.8,0.5,3.6,1.1,5.3,1.7c3.8,1.4,7.2,3.5,10.2,6.1
		c1.6,1.5,2.8,3.2,3.8,5.1c1,2,1.6,4.1,1.7,6.3c0.2,4.5-1,8.9-3.5,12.7c-2.5,3.8-5.9,7-9.8,9.3c-3.9,2.4-8.1,4.3-12.4,5.7
		c-8.6,2.8-17.5,4.1-26.5,3.9c-4.3-0.1-8.5-0.4-12.7-1c-4.1-0.6-8.1-1.2-12-1.9c-15.6-2.8-29.3-6.7-40.4-11.5
		c-2.8-1.2-5.3-2.4-7.7-3.7c-1.2-0.6-2.4-1.3-3.5-1.9c-1.1-0.6-2.1-1.3-3.1-2.1c-1.9-1.4-3.2-3.5-3.6-5.9c-0.2-2,0.1-3.9,1-5.7
		c0.4-0.7,0.8-1.4,1.3-2.1c0.4-0.6,0.9-1.1,1.5-1.5c0.8-0.8,1.8-1.4,2.8-1.8c0.6-0.3,1.3-0.4,2-0.5c0.5,0,0.7,0,0.7,0
		c0,0-0.2,0.1-0.7,0.2c-0.6,0.2-1.2,0.4-1.8,0.7c-0.9,0.5-1.8,1.1-2.5,1.9c-0.5,0.5-0.9,1-1.3,1.5c-0.4,0.6-0.8,1.3-1.1,2
		c-0.7,1.6-1,3.3-0.7,5.1c0.4,2,1.6,3.8,3.3,4.9c0.9,0.7,2,1.4,3,1.9c1.1,0.6,2.2,1.2,3.4,1.8c2.4,1.2,5,2.3,7.7,3.5
		c10.9,4.5,24.6,8.2,40.1,10.9c3.9,0.7,7.8,1.2,11.9,1.8c4.1,0.5,8.3,0.8,12.4,0.9c8.7,0.2,17.4-1.1,25.7-3.8
		c4.2-1.4,8.2-3.2,11.9-5.5c3.6-2.2,6.7-5.1,9-8.5c2.2-3.3,3.3-7.2,3.1-11.2c-0.2-3.8-1.9-7.3-4.7-9.9c-2.8-2.5-6-4.4-9.4-5.7
		c-1.7-0.7-3.4-1.2-5.1-1.7l-2.5-0.7l-2.6-0.6c-6.3-1.5-12.7-2.4-19.1-2.8c-5.9-0.4-11.3-0.5-16-0.5c-4.7,0-8.8,0.2-12.1,0.3
		l-7.6,0.2C323.8,170.3,322.9,170.2,322,170.1z"/>
	<path class="st2" d="M138.6,134c-0.1,0.1-15.9-11.7-35.3-26.5s-35.1-26.8-35-26.9c0.1-0.1,15.9,11.7,35.3,26.5
		S138.7,133.9,138.6,134z"/>
	<path class="st2" d="M121.2,0c0.1,0.1,0.1,0.2,0.1,0.3l0.4,0.8l1.5,3.3l5.3,12c4.5,10.1,10.7,24.1,17.8,39.4
		c7.1,15.3,13.7,29.1,18.6,39.1c2.4,4.9,4.4,9,5.8,11.8c0.7,1.4,1.2,2.4,1.6,3.2c0.2,0.3,0.3,0.6,0.4,0.8c0.1,0.1,0.1,0.2,0.1,0.3
		c-0.1-0.1-0.1-0.2-0.2-0.3l-0.4-0.8c-0.4-0.7-1-1.8-1.6-3.2C169,104,167,100,164.5,95c-4.9-9.9-11.7-23.7-18.7-39
		s-13.3-29.3-17.7-39.5c-2.2-5-3.9-9.2-5.1-12.1l-1.4-3.3c-0.1-0.4-0.2-0.6-0.3-0.9L121.2,0z"/>
	<path class="st2" d="M217.4,12.6c0.1,0-2.1,18.1-4.9,40.3c-2.9,22.2-5.3,40.3-5.4,40.2c-0.1,0,2.1-18.1,4.9-40.3
		C214.9,30.6,217.3,12.6,217.4,12.6z"/>
	<path class="st2" d="M116.6,161.1c0,0.1-8.9-1-19.9-2.4c-10.9-1.4-19.8-2.8-19.8-2.9c0-0.1,8.9,1,19.9,2.4S116.6,161,116.6,161.1z"
		/>
	<path class="st2" d="M275.4,80.2c0.1,0.1-7.9,4.6-17.7,10s-17.9,9.7-17.9,9.5c-0.1-0.1,7.9-4.6,17.7-10
		C267.3,84.4,275.4,80.1,275.4,80.2z"/>
	<polygon class="st3" points="186.1,169.1 188.1,161.9 185.8,154.7 193,156.7 200.2,154.4 198.2,161.7 200.5,168.8 193.3,166.9 	"/>
	<polygon class="st3" points="154,186.7 154.7,184.1 153.9,181.6 156.4,182.3 158.9,181.5 158.2,184.1 159,186.6 156.5,185.9 	"/>
	<polygon class="st3" points="202.3,203.3 203.6,198.4 202.1,193.5 207,194.9 211.8,193.3 210.5,198.2 212.1,203.1 207.2,201.7 	"/>
</g>
</svg>
